<?xml version="1.0" encoding="utf-8"?>
<!-- Generator: Adobe Illustrator 16.0.0, SVG Export Plug-In . SVG Version: 6.00 Build 0)  -->
<!DOCTYPE svg PUBLIC "-//W3C//DTD SVG 1.1//EN" "http://www.w3.org/Graphics/SVG/1.1/DTD/svg11.dtd">
<svg version="1.1" id="Layer_1" xmlns="http://www.w3.org/2000/svg" xmlns:xlink="http://www.w3.org/1999/xlink" x="0px" y="0px"
	 width="100px" height="100px" viewBox="0 0 100 100" enable-background="new 0 0 100 100" xml:space="preserve">
<g>
	<g>
		<path fill="#7ACAB7" d="M51.416,19.479C39.204,5.123,67.015-10.266,88.476,8.261C88.476,8.261,60.95,36.042,51.416,19.479z"/>
	</g>
	<g>
		<path fill="#3FAA9D" d="M75.447,6.561c-0.97,0.096-22.632,2.305-29.943,18.272c-3.045-2.007-5.75-2.743-5.815-2.761l-0.97,3.804
			c0.249,0.062,3.373,0.92,6.278,3.365c0.066,0.07,0.135,0.131,0.21,0.192c2.682,2.34,5.12,6.056,4.858,11.866l3.912,0.176
			c0.298-6.6-2.273-11.104-5.31-14.092c5.939-14.724,26.92-16.889,27.139-16.915c1.074-0.096,1.87-1.052,1.765-2.138
			C77.474,7.253,76.531,6.473,75.447,6.561z"/>
	</g>
	<g>
		<path fill="#DB5743" d="M75.176,66.812c-0.629-6.493,0.062-20.93,12.731-18.002c0.184,0.044,0.376,0.026,0.568,0.035
			c-8.791-17.379-36.458-7.458-36.458-7.458S14.064,26.56,11.525,61.861c-0.263,55.036,40.493,34.547,40.493,34.547
			s25.876,14.907,36.117-13.961c-0.079,0-0.148,0-0.228,0.018C78.488,83.955,76.085,76.067,75.176,66.812z"/>
	</g>
	<g>
		<path fill="#F37671" d="M36.604,73.395c0.656,8.65,4.36,16.02-2.176,18.308c-6.235,2.183-12.675-6.95-14.938-18.019
			c-1.734-8.501,1.97-16.363,7.996-17.512C33.511,55.032,35.936,64.719,36.604,73.395z"/>
	</g>
</g>
</svg>
